<?xml version="1.0" standalone="no"?>
<!DOCTYPE svg PUBLIC "-//W3C//DTD SVG 20010904//EN"
 "http://www.w3.org/TR/2001/REC-SVG-20010904/DTD/svg10.dtd">
<svg version="1.0" xmlns="http://www.w3.org/2000/svg"
 width="128.000000pt" height="128.000000pt" viewBox="0 0 128.000000 128.000000"
 preserveAspectRatio="xMidYMid meet">
<metadata>
Created by potrace 1.14, written by Peter Selinger 2001-2017
</metadata>
<g transform="translate(0.000000,128.000000) scale(0.100000,-0.100000)"
fill="#000000" stroke="none">
<path d="M0 641 l0 -360 58 2 57 2 0 283 c0 155 2 283 5 283 3 1 52 2 109 3
89 1 104 -1 110 -16 3 -9 5 -127 5 -262 -1 -178 1 -243 10 -240 6 3 31 31 56
62 39 49 45 64 46 107 2 43 -3 56 -32 92 l-35 42 35 45 c53 69 49 112 -18 196
-28 36 -63 77 -77 92 l-26 28 -152 0 -151 0 0 -359z"/>
<path d="M375 992 c6 -4 27 -28 48 -54 21 -26 43 -53 50 -60 7 -7 30 -34 51
-60 l38 -48 -43 -52 c-24 -29 -48 -56 -54 -60 -12 -9 5 -39 58 -102 l39 -45
-91 -110 c-50 -61 -91 -113 -91 -116 0 -3 36 -5 80 -4 l79 1 88 107 c48 58 90
108 95 109 9 4 -14 38 -66 97 -20 22 -36 42 -36 45 0 3 12 19 26 35 14 17 38
45 51 62 25 32 25 33 7 60 -9 16 -23 33 -29 38 -6 6 -29 32 -51 60 -88 111
-77 105 -173 105 -47 0 -81 -4 -76 -8z"/>
<path d="M614 991 c17 -27 138 -166 145 -166 4 0 34 32 66 70 32 39 65 78 73
88 14 16 7 17 -137 17 -85 0 -150 -4 -147 -9z"/>
<path d="M941 952 c-170 -201 -252 -305 -248 -315 4 -10 60 -80 186 -232 9
-11 33 -41 55 -67 21 -27 42 -48 46 -48 7 0 144 161 225 265 17 21 38 45 48
54 25 22 21 41 -16 82 -18 20 -46 53 -62 74 -17 21 -35 43 -40 49 -6 6 -43 50
-82 98 l-72 88 -40 -48z m108 -232 c33 -41 61 -77 61 -80 0 -3 -29 -40 -65
-82 l-63 -78 -66 79 c-36 43 -66 81 -66 84 0 3 6 12 13 19 6 7 32 38 57 68 42
51 62 72 66 67 1 -1 29 -36 63 -77z"/>
<path d="M695 393 c-33 -42 -66 -82 -74 -90 -7 -8 -11 -16 -9 -19 3 -2 71 -3
152 -2 l146 3 -76 93 c-41 50 -76 92 -77 91 -1 0 -29 -34 -62 -76z"/>
</g>
</svg>
